<svg width="42" height="42" viewBox="0 0 42 42" fill="none" xmlns="http://www.w3.org/2000/svg">
<path d="M10.9375 5.25C7.81205 5.25 5.25 7.81205 5.25 10.9375V31.0625C5.25 34.1879 7.81205 36.75 10.9375 36.75H31.0625C34.1879 36.75 36.75 34.1879 36.75 31.0625V10.9375C36.75 7.81205 34.1879 5.25 31.0625 5.25H10.9375ZM10.9375 7.875H31.0625C32.7688 7.875 34.125 9.2312 34.125 10.9375V31.0625C34.125 32.7688 32.7688 34.125 31.0625 34.125H10.9375C9.2312 34.125 7.875 32.7688 7.875 31.0625V10.9375C7.875 9.2312 9.2312 7.875 10.9375 7.875ZM12.0996 12.25L18.8689 21.9246L12.0945 29.75H13.8821L19.6602 23.0576L24.3428 29.75H29.9756L22.7722 19.4551L28.9946 12.25H27.2446L21.9827 18.3254L17.7324 12.25H12.0996ZM14.8186 13.7334H17.0608L27.2566 28.2666H25.0144L14.8186 13.7334Z" fill="white"/>
</svg>
